<svg width="128" height="128" viewBox="0 0 128 128" fill="none" xmlns="http://www.w3.org/2000/svg">
<path d="M89.3275 10.6641L113.614 10.6668L114.149 10.7411L114.676 10.8883L114.998 11.0246C115.42 11.2105 115.816 11.4809 116.164 11.8286L116.381 12.0635L116.613 12.3642L116.902 12.8449L117.109 13.3266L117.211 13.6683L117.283 14.0097L117.333 14.5121L117.335 38.6848C117.335 40.8939 115.545 42.6848 113.335 42.6848C111.311 42.6848 109.637 41.18 109.372 39.2276L109.335 38.6848L109.333 24.3121L74.9904 58.6625C73.5701 60.0827 71.3477 60.2118 69.7819 59.0502L69.3333 58.663L53.1717 43.14L22.8284 73.4833C21.2663 75.0454 18.7337 75.0454 17.1716 73.4833C15.7515 72.063 15.6224 69.8411 16.7843 68.2753L17.1716 67.8262L50.3432 34.6548C51.7633 33.2347 53.9856 33.1056 55.5515 34.2674L56 34.6547L72.1616 50.1775L103.669 18.6641H89.3275C87.3024 18.6641 85.6288 17.1593 85.3643 15.2068L85.3275 14.6641C85.3275 12.639 86.8325 10.9654 88.7851 10.7006L89.3275 10.6641ZM20 90.6641C22.2091 90.6641 24 92.455 24 94.6641V113.331C24 115.54 22.2091 117.331 20 117.331C17.7909 117.331 16 115.54 16 113.331V94.6641C16 92.455 17.7909 90.6641 20 90.6641ZM50.6667 73.3307C50.6667 71.1217 48.8758 69.3307 46.6667 69.3307C44.4576 69.3307 42.6667 71.1217 42.6667 73.3307V113.331C42.6667 115.54 44.4576 117.331 46.6667 117.331C48.8758 117.331 50.6667 115.54 50.6667 113.331V73.3307ZM73.3333 79.9974C75.5424 79.9974 77.3333 81.7883 77.3333 83.9974V113.331C77.3333 115.54 75.5424 117.331 73.3333 117.331C71.1243 117.331 69.3333 115.54 69.3333 113.331V83.9974C69.3333 81.7883 71.1243 79.9974 73.3333 79.9974ZM104 57.3307C104 55.1217 102.209 53.3307 100 53.3307C97.7909 53.3307 96 55.1217 96 57.3307V113.331C96 115.54 97.7909 117.331 100 117.331C102.209 117.331 104 115.54 104 113.331V57.3307Z" fill="#5D5BD4"/>
</svg>
