<svg width="128" height="128" viewBox="0 0 128 128" fill="none" xmlns="http://www.w3.org/2000/svg">
<g clip-path="url(#clip0_4830_30043)">
<path d="M28.8 41.2004C28.8 33.2475 35.2471 26.8004 43.2 26.8004C51.1529 26.8004 57.6 33.2475 57.6 41.2004C57.6 49.1533 51.1529 55.6004 43.2 55.6004C35.2471 55.6004 28.8 49.1533 28.8 41.2004ZM43.2 20.4004C31.7125 20.4004 22.4 29.7129 22.4 41.2004C22.4 52.6879 31.7125 62.0004 43.2 62.0004C54.6875 62.0004 64 52.6879 64 41.2004C64 29.7129 54.6875 20.4004 43.2 20.4004ZM79.5953 94.9305C83.039 96.3327 87.3717 97.2004 92.7971 97.2004C104.838 97.2004 111.497 92.9265 115.001 88.0203C116.694 85.65 117.538 83.2851 117.96 81.5116C118.172 80.622 118.281 79.8688 118.337 79.319C118.365 79.0435 118.38 78.8174 118.388 78.6487C118.392 78.5643 118.394 78.4941 118.396 78.4391L118.397 78.368L118.397 78.3412L118.397 78.3301L118.397 78.3204V78.0004C118.397 72.6985 114.099 68.4004 108.797 68.4004H79.175C80.7052 70.2533 81.8635 72.4247 82.5354 74.8004H108.797C110.564 74.8004 111.997 76.2331 111.997 78.0004V78.296L111.995 78.3443C111.992 78.4053 111.985 78.516 111.97 78.6693C111.938 78.977 111.872 79.4488 111.734 80.0292C111.456 81.1956 110.9 82.7507 109.793 84.3004C107.697 87.2343 103.156 90.8004 92.7971 90.8004C88.1147 90.8004 84.6209 90.0718 82.0043 89.0023C81.4797 90.7901 80.7145 92.8181 79.5953 94.9305ZM9.59998 81.2004C9.59998 74.1311 15.3307 68.4004 22.4 68.4004H64C71.0692 68.4004 76.8 74.1311 76.8 81.2004V81.6004L76.8 81.6101L76.7999 81.6218L76.7997 81.6514L76.7983 81.7348C76.7968 81.8009 76.7941 81.888 76.7892 81.9947C76.7793 82.2079 76.7607 82.5001 76.7251 82.86C76.6542 83.5787 76.5154 84.5746 76.2433 85.7561C75.7007 88.1121 74.615 91.2608 72.4327 94.4194C67.9462 100.913 59.2841 106.8 43.2 106.8C27.1158 106.8 18.4538 100.913 13.9672 94.4194C11.7849 91.2608 10.6992 88.1121 10.1566 85.7561C9.88451 84.5746 9.74576 83.5787 9.67482 82.86C9.6393 82.5001 9.62061 82.2079 9.61079 81.9947C9.60587 81.888 9.60317 81.8009 9.6017 81.7348L9.60028 81.6514L9.60004 81.6218L9.59999 81.6101L9.59998 81.6004V81.2004ZM16 81.5858L16.0001 81.5922L16.004 81.7002C16.009 81.8093 16.02 81.9897 16.0439 82.2314C16.0917 82.7158 16.1904 83.4387 16.3933 84.3197C16.8007 86.0887 17.615 88.44 19.2327 90.7814C22.3462 95.2878 28.8841 100.4 43.2 100.4C57.5158 100.4 64.0538 95.2878 67.1672 90.7814C68.7849 88.44 69.5992 86.0887 70.0066 84.3197C70.2095 83.4387 70.3083 82.7158 70.3561 82.2314C70.3799 81.9897 70.3909 81.8093 70.3959 81.7002L70.3998 81.5922L70.4 81.5857V81.2004C70.4 77.6658 67.5346 74.8004 64 74.8004H22.4C18.8654 74.8004 16 77.6658 16 81.2004V81.5858ZM83.2 46.0004C83.2 40.6985 87.498 36.4004 92.8 36.4004C98.1019 36.4004 102.4 40.6985 102.4 46.0004C102.4 51.3023 98.1019 55.6004 92.8 55.6004C87.498 55.6004 83.2 51.3023 83.2 46.0004ZM92.8 30.0004C83.9634 30.0004 76.8 37.1638 76.8 46.0004C76.8 54.8369 83.9634 62.0004 92.8 62.0004C101.637 62.0004 108.8 54.8369 108.8 46.0004C108.8 37.1638 101.637 30.0004 92.8 30.0004Z" fill="#5D5BD4"/>
</g>
<defs>
<clipPath id="clip0_4830_30043">
<rect width="128" height="128" fill="white"/>
</clipPath>
</defs>
</svg>
