<svg width="128" height="128" viewBox="0 0 128 128" fill="none" xmlns="http://www.w3.org/2000/svg">
<g clip-path="url(#clip0_4830_30046)">
<path d="M28 18H75C77.7614 18 80 20.2386 80 23V58C80 60.2091 81.7909 62 84 62H99C101.761 62 104 64.2386 104 67V114H92V100C92 96.6863 89.3137 94 86 94H42C38.6863 94 36 96.6863 36 100V114H24V22C24 19.7909 25.7909 18 28 18ZM84 114H68V102H84V114ZM60 114H44V102H60V114ZM108 122C110.209 122 112 120.209 112 118V67C112 59.8203 106.18 54 99 54H88V23C88 15.8203 82.1797 10 75 10H28C21.3726 10 16 15.3726 16 22V118C16 120.209 17.7909 122 20 122H108ZM42 42C45.3137 42 48 39.3137 48 36C48 32.6863 45.3137 30 42 30C38.6863 30 36 32.6863 36 36C36 39.3137 38.6863 42 42 42ZM42 62C45.3137 62 48 59.3137 48 56C48 52.6863 45.3137 50 42 50C38.6863 50 36 52.6863 36 56C36 59.3137 38.6863 62 42 62ZM48 76C48 79.3137 45.3137 82 42 82C38.6863 82 36 79.3137 36 76C36 72.6863 38.6863 70 42 70C45.3137 70 48 72.6863 48 76ZM62 42C65.3137 42 68 39.3137 68 36C68 32.6863 65.3137 30 62 30C58.6863 30 56 32.6863 56 36C56 39.3137 58.6863 42 62 42ZM68 56C68 59.3137 65.3137 62 62 62C58.6863 62 56 59.3137 56 56C56 52.6863 58.6863 50 62 50C65.3137 50 68 52.6863 68 56ZM62 82C65.3137 82 68 79.3137 68 76C68 72.6863 65.3137 70 62 70C58.6863 70 56 72.6863 56 76C56 79.3137 58.6863 82 62 82ZM88 76C88 79.3137 85.3137 82 82 82C78.6863 82 76 79.3137 76 76C76 72.6863 78.6863 70 82 70C85.3137 70 88 72.6863 88 76Z" fill="#5D5BD4"/>
</g>
<defs>
<clipPath id="clip0_4830_30046">
<rect width="128" height="128" fill="white"/>
</clipPath>
</defs>
</svg>
