<svg width="128" height="128" viewBox="0 0 128 128" fill="none" xmlns="http://www.w3.org/2000/svg">
<g clip-path="url(#clip0_4830_30049)">
<path d="M44.8 49.9998C44.8 48.2325 46.2327 46.7998 48 46.7998H80C81.7673 46.7998 83.2 48.2325 83.2 49.9998C83.2 51.7671 81.7673 53.1998 80 53.1998H48C46.2327 53.1998 44.8 51.7671 44.8 49.9998ZM48 65.9998C46.2327 65.9998 44.8 67.4325 44.8 69.1998C44.8 70.9671 46.2327 72.3998 48 72.3998H80C81.7673 72.3998 83.2 70.9671 83.2 69.1998C83.2 67.4325 81.7673 65.9998 80 65.9998H48ZM44.8 88.3998C44.8 86.6325 46.2327 85.1998 48 85.1998H60.8C62.5673 85.1998 64 86.6325 64 88.3998C64 90.1671 62.5673 91.5998 60.8 91.5998H48C46.2327 91.5998 44.8 90.1671 44.8 88.3998ZM38.4 17.9998C38.4 16.2325 39.8327 14.7998 41.6 14.7998C43.3673 14.7998 44.8 16.2325 44.8 17.9998V21.1998H60.8V17.9998C60.8 16.2325 62.2327 14.7998 64 14.7998C65.7673 14.7998 67.2 16.2325 67.2 17.9998V21.1998H83.2V17.9998C83.2 16.2325 84.6327 14.7998 86.4 14.7998C88.1673 14.7998 89.6 16.2325 89.6 17.9998V21.1998H92.8C98.1019 21.1998 102.4 25.4979 102.4 30.7998V61.0822C100.312 61.9767 98.3569 63.2759 96.6528 64.98L96 65.6328V30.7998C96 29.0325 94.5673 27.5998 92.8 27.5998H35.2C33.4327 27.5998 32 29.0325 32 30.7998V107.6C32 109.367 33.4327 110.8 35.2 110.8H59.011L57.9658 114.981C57.7789 115.728 57.6649 116.47 57.6183 117.2H35.2C29.898 117.2 25.6 112.902 25.6 107.6V30.7998C25.6 25.4979 29.898 21.1998 35.2 21.1998H38.4V17.9998ZM101.179 69.5055L70.2704 100.414C68.4683 102.216 67.1899 104.474 66.5718 106.946L64.1751 116.533C63.1329 120.702 66.9092 124.478 71.0782 123.436L80.6648 121.039C83.1372 120.421 85.3952 119.143 87.1972 117.341L118.106 86.4323C122.78 81.7581 122.78 74.1797 118.106 69.5055C113.431 64.8312 105.853 64.8312 101.179 69.5055Z" fill="#5D5BD4"/>
</g>
<defs>
<clipPath id="clip0_4830_30049">
<rect width="128" height="128" fill="white"/>
</clipPath>
</defs>
</svg>
